<svg width="130" height="70" viewBox="0 0 130 70" fill="none" xmlns="http://www.w3.org/2000/svg">
<mask id="mask0_10_205" style="mask-type:luminance" maskUnits="userSpaceOnUse" x="0" y="0" width="130" height="70">
<path d="M130 0H0V70H130V0Z" fill="white"/>
</mask>
<g mask="url(#mask0_10_205)">
<path d="M71.3151 21.3559L15.545 32.4266L15.337 45.7453L58.2639 34.6785L58.0729 46.8951L127.368 24.6215L71.1428 32.3784L71.3151 21.3559Z" fill="#0004FF" fill-opacity="0.2"/>
<path d="M71.3151 21.3559L15.545 32.4266L15.337 45.7453L58.2639 34.6785L58.0729 46.8951L127.368 24.6215L71.1428 32.3784L71.3151 21.3559Z" fill="#FF0000" fill-opacity="0.8"/>
<path d="M71.3151 21.3559L15.545 32.4266L15.337 45.7453L58.2639 34.6785L58.0729 46.8951L127.368 24.6215L71.1428 32.3784L71.3151 21.3559Z" fill="#000DFF" fill-opacity="0.2"/>
<path d="M10.3695 33.1633C10.3189 32.7047 10.1176 32.3501 9.76563 32.0999C9.418 31.8454 8.92451 31.7223 8.28516 31.7306C7.86185 31.7359 7.50986 31.7927 7.22913 31.9005C6.94843 32.0086 6.73884 32.1553 6.60036 32.3409C6.4618 32.5223 6.39201 32.7299 6.39093 32.9637C6.38485 33.1559 6.42696 33.3244 6.51722 33.4694C6.61191 33.6143 6.74602 33.7422 6.9196 33.8526C7.09752 33.959 7.31055 34.0523 7.55866 34.1326C7.80678 34.2129 8.0856 34.2825 8.39516 34.3411L9.56281 34.5769C10.235 34.706 10.8285 34.8822 11.3432 35.1053C11.8624 35.3283 12.2984 35.5962 12.6513 35.9091C13.0086 36.222 13.2805 36.5839 13.4672 36.9949C13.6539 37.4059 13.7531 37.8682 13.7648 38.3817C13.772 39.1917 13.5658 39.8897 13.1464 40.4754C12.727 41.0613 12.1182 41.5139 11.3201 41.8332C10.5264 42.1523 9.56518 42.3191 8.43637 42.3335C7.30318 42.348 6.31318 42.1999 5.46641 41.8892C4.61963 41.5785 3.95787 41.0983 3.48114 40.4488C3.00439 39.7993 2.75226 38.9735 2.72473 37.9716L5.85979 37.9315C5.89215 38.3446 6.01391 38.6876 6.22509 38.9604C6.43625 39.2334 6.72363 39.4385 7.08722 39.5757C7.45524 39.7131 7.87954 39.7787 8.36015 39.7725C8.80111 39.7668 9.1751 39.7058 9.48213 39.5889C9.79359 39.4723 10.0317 39.3126 10.1964 39.1102C10.3611 38.9075 10.4438 38.6767 10.4445 38.4179C10.4366 38.1757 10.3543 37.9701 10.1975 37.8009C10.0407 37.6275 9.80046 37.4803 9.4768 37.359C9.15748 37.2337 8.75011 37.12 8.25472 37.0177L6.83485 36.7226C5.65833 36.483 4.72869 36.0834 4.04596 35.5244C3.36317 34.9609 3.01704 34.1929 3.00757 33.2199C2.99185 32.4267 3.20682 31.7285 3.65247 31.1257C4.09811 30.5229 4.7198 30.0493 5.51756 29.705C6.31529 29.3607 7.22785 29.1821 8.25524 29.1689C9.30467 29.1555 10.2176 29.3129 10.9941 29.6412C11.7749 29.9653 12.3835 30.4274 12.8198 31.0273C13.2561 31.6273 13.4844 32.3258 13.5046 33.1232L10.3695 33.1633ZM15.5229 45.6881L15.3342 32.4609L18.5354 32.4199L18.5589 34.0672L18.6581 34.0659C18.7862 33.772 18.9696 33.4877 19.2082 33.2132C19.4513 32.9386 19.7612 32.7133 20.138 32.5373C20.5191 32.3571 20.9764 32.2636 21.51 32.2568C22.2155 32.2476 22.8771 32.4146 23.4951 32.7574C24.1173 33.1003 24.6234 33.6345 25.013 34.3604C25.4026 35.0862 25.6055 36.0149 25.6217 37.1465C25.6372 38.2362 25.4672 39.1508 25.1117 39.8903C24.7605 40.6298 24.279 41.1872 23.667 41.5624C23.0593 41.9377 22.3806 42.1301 21.631 42.1396C21.1196 42.1462 20.6752 42.0726 20.2982 41.9188C19.9212 41.7648 19.6028 41.5602 19.3435 41.3046C19.0885 41.0488 18.8905 40.7738 18.7496 40.4791L18.6834 40.4798L18.7571 45.6468L15.5229 45.6881ZM18.5709 37.2303C18.5783 37.748 18.6575 38.1979 18.8085 38.5803C18.9639 38.9624 19.182 39.2582 19.4628 39.4677C19.748 39.6727 20.0868 39.7729 20.4793 39.7679C20.8761 39.7628 21.2119 39.6542 21.4867 39.4418C21.7614 39.2253 21.9667 38.924 22.1023 38.5382C22.2422 38.1522 22.3086 37.7002 22.3012 37.1827C22.2938 36.6649 22.2147 36.217 22.0637 35.8389C21.9172 35.4608 21.7036 35.169 21.4228 34.9638C21.1465 34.7586 20.8078 34.6584 20.4065 34.6636C20.0095 34.6687 19.6737 34.7753 19.3989 34.9835C19.124 35.1916 18.9143 35.4867 18.7698 35.8685C18.6297 36.2503 18.5634 36.7042 18.5709 37.2303ZM32.1364 42.0492C31.0737 42.0628 30.1538 41.8762 29.3765 41.4894C28.6035 41.0984 28.0045 40.5361 27.5796 39.8024C27.159 39.0644 26.9412 38.184 26.9267 37.161C26.9125 36.1674 27.1073 35.2962 27.5113 34.5477C27.9151 33.7951 28.491 33.2072 29.2391 32.7842C29.9871 32.3571 30.8727 32.137 31.8956 32.1239C32.6188 32.1146 33.2818 32.2127 33.8844 32.4179C34.4871 32.6231 35.0098 32.9318 35.4522 33.3437C35.8948 33.7556 36.2415 34.2669 36.4928 34.8776C36.744 35.4841 36.8752 36.1819 36.8864 36.971L36.8975 37.7351L28.0676 37.8479L28.0424 36.0693L33.8627 35.9949C33.8536 35.6693 33.768 35.3801 33.6056 35.1275C33.4432 34.8749 33.222 34.6794 32.9422 34.5409C32.6669 34.3983 32.3504 34.3292 31.9934 34.3338C31.6317 34.3384 31.3089 34.4198 31.0244 34.578C30.74 34.7319 30.5159 34.9416 30.3519 35.2067C30.1881 35.4678 30.1041 35.7632 30.1001 36.0932L30.1259 37.9031C30.1315 38.2955 30.2178 38.6391 30.3853 38.9334C30.5525 39.2235 30.7873 39.4482 31.0894 39.6071C31.3917 39.7661 31.7499 39.843 32.1645 39.8377C32.4511 39.834 32.7107 39.7931 32.9434 39.715C33.176 39.6369 33.3749 39.5235 33.5404 39.3753C33.7059 39.227 33.8289 39.0458 33.9098 38.832L36.8806 38.8753C36.7661 39.5074 36.5028 40.0598 36.0905 40.5329C35.6827 41.0016 35.1433 41.3698 34.4723 41.6373C33.8014 41.9006 33.0227 42.0378 32.1364 42.0492ZM43.3589 41.9057C42.2962 41.9193 41.3763 41.7327 40.5988 41.3459C39.826 40.955 39.227 40.3926 38.8019 39.6588C38.3812 38.9209 38.1637 38.0405 38.149 37.0175C38.1348 36.0237 38.3298 35.1527 38.7336 34.4042C39.1374 33.6516 39.7135 33.0637 40.4614 32.6408C41.2096 32.2136 42.095 31.9935 43.1181 31.9804C43.8412 31.9711 44.5041 32.0692 45.1069 32.2744C45.7096 32.4796 46.2321 32.7883 46.6747 33.2002C47.1171 33.6121 47.464 34.1234 47.7152 34.7341C47.9665 35.3406 48.0977 36.0384 48.1089 36.8275L48.1198 37.5916L39.2901 37.7045L39.2647 35.9258L45.085 35.8514C45.0761 35.5258 44.9903 35.2366 44.8279 34.984C44.6655 34.7314 44.4445 34.5359 44.1647 34.3974C43.8892 34.2548 43.5729 34.1857 43.2157 34.1903C42.8542 34.1949 42.5312 34.2763 42.2467 34.4345C41.9623 34.5884 41.7382 34.7981 41.5744 35.0632C41.4104 35.3243 41.3264 35.6197 41.3223 35.9497L41.3482 37.7596C41.3538 38.152 41.4403 38.4954 41.6076 38.7899C41.775 39.08 42.0098 39.3045 42.3119 39.4636C42.614 39.6226 42.9724 39.6995 43.3868 39.6942C43.6734 39.6905 43.933 39.6496 44.1657 39.5715C44.3983 39.4932 44.5974 39.38 44.7629 39.2318C44.9282 39.0835 45.0514 38.9024 45.1321 38.6883L48.1029 38.7319C47.9886 39.3639 47.7251 39.9163 47.313 40.3894C46.9052 40.8581 46.3658 41.2263 45.6948 41.4936C45.0237 41.7571 44.245 41.8944 43.3589 41.9057ZM53.5422 41.7316C52.7926 41.7413 52.1087 41.5662 51.4907 41.2067C50.8725 40.8471 50.3752 40.3022 49.9988 39.572C49.6222 38.8419 49.4262 37.9319 49.4107 36.8422C49.3946 35.7106 49.571 34.7771 49.9396 34.0417C50.3085 33.3062 50.7968 32.7591 51.4047 32.4006C52.0171 32.042 52.6781 31.8581 53.3881 31.8491C53.9215 31.8423 54.3792 31.924 54.7609 32.0945C55.1425 32.2608 55.4588 32.4782 55.7095 32.7464C55.9604 33.0146 56.1517 33.2941 56.2838 33.5847L56.35 33.5838L56.2807 28.7301L59.515 28.6888L59.698 41.5151L56.4967 41.5561L56.4745 39.9966L56.3752 39.9979C56.2429 40.2961 56.0527 40.5761 55.8051 40.8383C55.5575 41.1003 55.2452 41.3132 54.8682 41.4766C54.4956 41.6401 54.0536 41.7251 53.5422 41.7316ZM54.6326 39.3312C55.0249 39.326 55.3587 39.2174 55.6334 39.0051C55.9082 38.7886 56.1177 38.4873 56.2623 38.1013C56.4066 37.7153 56.4751 37.2633 56.4677 36.7456C56.4604 36.2196 56.3789 35.7676 56.2235 35.3895C56.0727 35.0114 55.8546 34.7218 55.5694 34.5208C55.2888 34.3198 54.9522 34.2219 54.5598 34.2269C54.1586 34.232 53.8204 34.3408 53.5457 34.553C53.2709 34.7654 53.0633 35.0625 52.9232 35.4442C52.7876 35.826 52.7235 36.2758 52.7309 36.7935C52.7383 37.3111 52.8175 37.7612 52.9684 38.1434C53.1194 38.5257 53.3332 38.8215 53.6095 39.031C53.8903 39.2362 54.2314 39.3363 54.6326 39.3312ZM63.7724 45.071C63.3843 45.076 63.018 45.0515 62.6732 44.9975C62.3284 44.9475 62.0319 44.8783 61.7838 44.7895L62.4664 42.5571C62.7854 42.6533 63.0727 42.7081 63.3286 42.7215C63.589 42.7349 63.8112 42.6923 63.9949 42.594C64.1833 42.4997 64.3265 42.3329 64.4245 42.0935L64.546 41.804L60.7927 31.8796L64.1789 31.8364L66.1487 38.6764L66.2544 38.6751L68.0548 31.7868L71.461 31.7432L67.7818 42.3325C67.6041 42.8609 67.3484 43.3278 67.0146 43.7329C66.6854 44.1423 66.2554 44.4651 65.7253 44.7015C65.1993 44.938 64.5483 45.0611 63.7724 45.071ZM75.731 28.4814L78.8941 37.8369L79.0066 37.8355L81.9019 28.4025L85.566 28.3557L81.1786 41.2405L76.8201 41.2961L72.0668 28.5282L75.731 28.4814ZM87.2073 41.1633L87.0701 31.5435L90.3044 31.5022L90.4416 41.122L87.2073 41.1633ZM88.6746 30.4019C88.2205 30.4076 87.8282 30.2707 87.498 29.9909C87.1675 29.707 86.9993 29.3625 86.9937 28.9576C86.9879 28.5567 87.1462 28.2122 87.4685 27.9241C87.7906 27.632 88.1788 27.4828 88.6328 27.4771C89.0915 27.4712 89.4839 27.6103 89.8098 27.8942C90.1401 28.174 90.3081 28.5142 90.3139 28.9151C90.3197 29.3201 90.1614 29.6688 89.8393 29.9609C89.5215 30.249 89.1333 30.396 88.6746 30.4019ZM96.2128 41.1859C95.4631 41.1956 94.7793 41.0205 94.1611 40.661C93.543 40.3014 93.0457 39.7565 92.6693 39.0264C92.2928 38.2962 92.0969 37.3862 92.0811 36.2966C92.065 35.165 92.2414 34.2315 92.6103 33.496C92.9789 32.7605 93.4673 32.2134 94.0752 31.855C94.6876 31.4963 95.3486 31.3124 96.0586 31.3034C96.5921 31.2966 97.0497 31.3784 97.4315 31.5489C97.813 31.7151 98.1293 31.9325 98.3801 32.2007C98.6308 32.469 98.8223 32.7484 98.9543 33.0391L99.0204 33.0382L98.9512 28.1845L102.185 28.1431L102.368 40.9695L99.1673 41.0104L99.145 39.451L99.0459 39.4523C98.9133 39.7504 98.7234 40.0304 98.4756 40.2926C98.228 40.5546 97.9156 40.7676 97.5388 40.9309C97.1663 41.0944 96.7243 41.1795 96.2128 41.1859ZM97.3031 38.7855C97.6956 38.7804 98.0291 38.6718 98.3039 38.4594C98.5788 38.243 98.7884 37.9416 98.9327 37.5556C99.0773 37.1696 99.1458 36.7177 99.1384 36.1999C99.1308 35.6739 99.0493 35.2219 98.8941 34.8438C98.7432 34.4657 98.5251 34.1762 98.24 33.9752C97.9593 33.7742 97.6228 33.6762 97.2303 33.6812C96.8291 33.6863 96.4911 33.7951 96.2161 34.0073C95.9414 34.2197 95.734 34.5168 95.5939 34.8986C95.4582 35.2804 95.394 35.7301 95.4014 36.2479C95.4088 36.7654 95.4879 37.2156 95.6389 37.5977C95.79 37.98 96.0037 38.2758 96.2802 38.4853C96.5609 38.6905 96.9018 38.7907 97.3031 38.7855ZM109.165 41.0641C108.103 41.0777 107.183 40.8912 106.405 40.5045C105.632 40.1133 105.033 39.5511 104.608 38.8173C104.188 38.0794 103.97 37.1988 103.956 36.176C103.941 35.1823 104.136 34.3112 104.54 33.5627C104.944 32.81 105.52 32.2222 106.268 31.7993C107.016 31.3721 107.902 31.1518 108.924 31.1388C109.648 31.1296 110.311 31.2275 110.913 31.4329C111.516 31.6382 112.039 31.9468 112.481 32.3587C112.924 32.7706 113.27 33.282 113.522 33.8925C113.773 34.499 113.904 35.1968 113.916 35.9861L113.926 36.75L105.096 36.863L105.071 35.0843L110.892 35.0099C110.882 34.6844 110.797 34.3952 110.634 34.1425C110.472 33.8897 110.251 33.6942 109.971 33.5559C109.696 33.4131 109.379 33.3442 109.022 33.3488C108.661 33.3534 108.338 33.4348 108.053 33.593C107.769 33.747 107.545 33.9564 107.381 34.2217C107.217 34.4826 107.133 34.7782 107.129 35.108L107.155 36.9181C107.16 37.3105 107.247 37.6539 107.414 37.9483C107.581 38.2386 107.816 38.4631 108.118 38.622C108.421 38.7811 108.779 38.8579 109.193 38.8526C109.48 38.8489 109.74 38.8081 109.972 38.7298C110.205 38.6518 110.404 38.5386 110.569 38.3903C110.735 38.242 110.858 38.0609 110.939 37.8468L113.91 37.8904C113.795 38.5224 113.532 39.0749 113.119 39.5478C112.712 40.0167 112.172 40.3847 111.501 40.6522C110.83 40.9155 110.052 41.0529 109.165 41.0641ZM120.381 40.9208C119.314 40.9344 118.394 40.7394 117.621 40.336C116.852 39.9281 116.255 39.3552 115.83 38.6174C115.409 37.8753 115.192 37.0116 115.178 36.0263C115.164 35.0367 115.356 34.1677 115.756 33.4192C116.16 32.6667 116.74 32.0787 117.497 31.6556C118.258 31.2283 119.173 31.0078 120.24 30.9942C121.307 30.9804 122.224 31.1776 122.993 31.5852C123.766 31.9889 124.363 32.5618 124.784 33.3038C125.209 34.0417 125.429 34.9054 125.443 35.8949C125.457 36.8803 125.262 37.7493 124.858 38.502C124.459 39.2503 123.878 39.8383 123.117 40.2656C122.36 40.6887 121.448 40.9072 120.381 40.9208ZM120.368 38.6095C120.756 38.6045 121.083 38.4877 121.349 38.2588C121.614 38.0298 121.815 37.714 121.95 37.3115C122.09 36.9087 122.156 36.4443 122.149 35.9183C122.141 35.3838 122.062 34.9171 121.911 34.5183C121.764 34.1192 121.554 33.8087 121.282 33.5866C121.01 33.3646 120.68 33.2561 120.292 33.261C119.89 33.2662 119.552 33.3832 119.278 33.6123C119.008 33.8412 118.803 34.1571 118.663 34.5598C118.528 34.9623 118.464 35.4308 118.471 35.9653C118.479 36.4913 118.556 36.9539 118.703 37.353C118.854 37.7519 119.068 38.0624 119.345 38.2843C119.626 38.5062 119.967 38.6146 120.368 38.6095Z" fill="white"/>
</g>
</svg>
